<?xml version="1.0" encoding="UTF-8" standalone="no"?>
<svg
   xmlns:dc="http://purl.org/dc/elements/1.1/"
   xmlns:cc="http://creativecommons.org/ns#"
   xmlns:rdf="http://www.w3.org/1999/02/22-rdf-syntax-ns#"
   xmlns:svg="http://www.w3.org/2000/svg"
   xmlns="http://www.w3.org/2000/svg"
   viewBox="0 0 578.948 135.99068"
   height="135.99068"
   width="578.948"
   xml:space="preserve"
   id="svg2"
   version="1.1"><metadata
     id="metadata8"><rdf:RDF><cc:Work
         rdf:about=""><dc:format>image/svg+xml</dc:format><dc:type
           rdf:resource="http://purl.org/dc/dcmitype/StillImage" /><dc:title></dc:title></cc:Work></rdf:RDF></metadata><defs
     id="defs6"><clipPath
       id="clipPath18"
       clipPathUnits="userSpaceOnUse"><path
         id="path16"
         d="M 0,139.493 H 434.211 V 0 H 0 Z" /></clipPath><clipPath
       id="clipPath54"
       clipPathUnits="userSpaceOnUse"><path
         id="path52"
         d="M 0,139.493 H 434.211 V 0 H 0 Z" /></clipPath></defs><g
     transform="matrix(1.3333333,0,0,-1.3333333,0,135.99068)"
     id="g10"><g
       transform="matrix(1.0788708,0,0,1.0788708,-14.708813,-25.05865)"
       style="fill:#0168ba;fill-opacity:1"
       id="g12"><g
         style="fill:#0168ba;fill-opacity:1"
         clip-path="url(#clipPath18)"
         id="g14"><g
           style="fill:#0168ba;fill-opacity:1"
           transform="translate(149.5185,78.4124)"
           id="g20"><path
             id="path22"
             style="fill:#0168ba;fill-opacity:1;fill-rule:nonzero;stroke:none"
             d="m 0,0 c 0,1.1 -0.9,2 -2,2 h -12.073 c -1.1,0 -2,-0.9 -2,-2 v -15.867 c 0,-1.1 -0.9,-2 -2,-2 h -9.245 c -1.1,0 -2,0.9 -2,2 v 44.288 c 0,1.1 0.9,2 2,2 h 9.245 c 1.1,0 2,-0.9 2,-2 V 14.899 c 0,-1.1 0.9,-2 2,-2 H -2 c 1.1,0 2,0.9 2,2 v 13.522 c 0,1.1 0.9,2 2,2 h 9.244 c 1.1,0 2,-0.9 2,-2 v -44.288 c 0,-1.1 -0.9,-2 -2,-2 H 2 c -1.1,0 -2,0.9 -2,2 z" /></g><g
           style="fill:#0168ba;fill-opacity:1"
           transform="translate(204.4984,84.6892)"
           id="g24"><path
             id="path26"
             style="fill:#0168ba;fill-opacity:1;fill-rule:nonzero;stroke:none"
             d="m 0,0 c 0,8.002 -2.966,13.659 -10.899,13.659 -7.934,0 -10.9,-5.657 -10.9,-13.659 0,-8.071 2.966,-13.658 10.9,-13.658 C -2.966,-13.658 0,-8.071 0,0 m 13.659,0 c 0,-14.003 -7.105,-24.903 -24.558,-24.903 -17.453,0 -24.49,10.9 -24.49,24.903 0,14.004 7.037,24.903 24.49,24.903 C 6.554,24.903 13.659,14.004 13.659,0" /></g><g
           style="fill:#0168ba;fill-opacity:1"
           transform="translate(262.5826,85.6557)"
           id="g28"><path
             id="path30"
             style="fill:#0168ba;fill-opacity:1;fill-rule:nonzero;stroke:none"
             d="M 0,0 C 0,1.1 -0.384,1.186 -0.852,0.191 L -8.116,-15.23 c -0.468,-0.995 -1.752,-1.809 -2.852,-1.809 h -2.898 c -1.1,0 -2.384,0.813 -2.854,1.808 l -7.259,15.354 c -0.47,0.994 -0.855,0.908 -0.855,-0.192 V -23.11 c 0,-1.1 -0.9,-2 -2,-2 h -9.245 c -1.1,0 -2,0.9 -2,2 v 44.288 c 0,1.1 0.9,2 2,2 h 9.452 c 1.1,0 2.384,-0.815 2.852,-1.81 L -13.268,-0.95 c 0.468,-0.996 1.233,-0.995 1.699,0.002 l 10.446,22.314 c 0.466,0.997 1.747,1.812 2.847,1.812 h 9.521 c 1.1,0 2,-0.9 2,-2 V -23.11 c 0,-1.1 -0.9,-2 -2,-2 H 2 c -1.1,0 -2,0.9 -2,2 z" /></g><g
           style="fill:#0168ba;fill-opacity:1"
           transform="translate(286.2439,60.5454)"
           id="g32"><path
             id="path34"
             style="fill:#0168ba;fill-opacity:1;fill-rule:nonzero;stroke:none"
             d="m 0,0 c -1.1,0 -2,0.9 -2,2 v 44.288 c 0,1.1 0.9,2 2,2 h 32.147 c 1.1,0 2,-0.9 2,-2 v -7.175 c 0,-1.1 -0.9,-2 -2,-2 H 13.245 c -1.1,0 -2,-0.9 -2,-2 v -3.519 c 0,-1.1 0.9,-2 2,-2 H 27.87 c 1.1,0 2,-0.9 2,-2 v -6.9 c 0,-1.1 -0.9,-2 -2,-2 H 13.245 c -1.1,0 -2,-0.9 -2,-2 v -3.519 c 0,-1.1 0.9,-2 2,-2 h 19.316 c 1.1,0 2,-0.9 2,-2 V 2 c 0,-1.1 -0.9,-2 -2,-2 z" /></g><g
           style="fill:#0168ba;fill-opacity:1"
           transform="translate(349.7103,98.5551)"
           id="g36"><path
             id="path38"
             style="fill:#0168ba;fill-opacity:1;fill-rule:nonzero;stroke:none"
             d="m 0,0 h -6.968 c -1.1,0 -2,-0.9 -2,-2 v -6.21 c 0,-1.1 0.9,-2 2,-2 h 4.899 c 1.1,0 2.894,0.102 3.987,0.227 0,0 5.877,0.67 5.877,4.878 C 7.795,-0.897 4.484,0 0,0 m -2.417,-22.201 c -0.568,0.942 -1.932,1.713 -3.032,1.713 h -1.519 c -1.1,0 -2,-0.9 -2,-2 V -36.01 c 0,-1.1 -0.9,-2 -2,-2 h -9.245 c -1.1,0 -2,0.9 -2,2 V 8.278 c 0,1.1 0.9,2 2,2 h 19.04 c 1.1,0 2.9,0.034 3.999,0.075 0,0 18.42,0.684 18.352,-15.458 C 21.144,-12.9 17.522,-17.66 9.727,-19.591 l 10.459,-16.723 c 0.583,-0.933 0.16,-1.696 -0.94,-1.696 H 9.105 c -1.1,0 -2.464,0.771 -3.032,1.713 z" /></g><g
           style="fill:#0168ba;fill-opacity:1"
           transform="translate(378.889,60.5454)"
           id="g40"><path
             id="path42"
             style="fill:#0168ba;fill-opacity:1;fill-rule:nonzero;stroke:none"
             d="m 0,0 c -1.1,0 -2,0.9 -2,2 v 44.288 c 0,1.1 0.9,2 2,2 h 32.147 c 1.1,0 2,-0.9 2,-2 v -7.175 c 0,-1.1 -0.9,-2 -2,-2 H 13.245 c -1.1,0 -2,-0.9 -2,-2 v -3.519 c 0,-1.1 0.9,-2 2,-2 H 27.87 c 1.1,0 2,-0.9 2,-2 v -6.9 c 0,-1.1 -0.9,-2 -2,-2 H 13.245 c -1.1,0 -2,-0.9 -2,-2 v -3.519 c 0,-1.1 0.9,-2 2,-2 h 19.316 c 1.1,0 2,-0.9 2,-2 V 2 c 0,-1.1 -0.9,-2 -2,-2 z" /></g></g></g><text
       y="-5.9076033"
       x="237.77187"
       id="text46"
       style="font-style:italic;font-variant:normal;font-weight:normal;font-stretch:normal;font-size:29.85611343px;font-family:Helvetica;-inkscape-font-specification:Helvetica-Oblique;writing-mode:lr-tb;fill:#0168ba;fill-opacity:1;fill-rule:nonzero;stroke:none;stroke-width:1.07576025"
       transform="scale(0.99711693,-1.0028914)"><tspan
         style="stroke-width:1.07576025"
         id="tspan44"
         y="-5.9076033"
         x="237.77187 260.88049 276.79379 299.36502 321.93625 342.83551 365.40674 387.97797 403.89127 418.16251">Transports</tspan></text>
<g
       id="g48"><g
         clip-path="url(#clipPath54)"
         id="g50"><g
           style="fill:#0168ba;fill-opacity:1"
           transform="matrix(1.0788708,0,0,1.0788708,2.7813003,62.225986)"
           id="g56"><path
             id="path58"
             style="fill:#0168ba;fill-opacity:1;fill-rule:nonzero;stroke:none"
             d="m 0,0 v 4.86 l -0.885,3.54 0.743,3.25 1.776,6.37 3.103,2.54 2.996,5.58 3.488,1.81 3.86,2.26 12.959,3.04 13.69,3.05 6.57,-2.82 9.58,-1.66 8.75,-6.01 L 49.11,16.63 23.76,8 2.885,-5.35 Z" /></g><g
           style="fill:#0168ba;fill-opacity:1"
           transform="matrix(1.0788708,0,0,1.0788708,84.084893,43.993178)"
           id="g60"><path
             id="path62"
             style="fill:#0168ba;fill-opacity:1;fill-rule:nonzero;stroke:none"
             d="m 0,0 -3.6,-0.51 0.75,-3.33 -2.48,-3.42 -2.11,-1.46 2.05,-1.6 -0.71,-2.1 2.52,-3.33 2.26,-4.12 0.58,-5.46 -1.08,-2.79 -3.25,-3.88 -3.9,-1.85 -7.23,-1.12 -2.4,-1.541 h -4.87 l -3.37,-0.689 -17.67,4.935 -20.62,10.257 3.66,7.614 -7.32,5.092 -3.94,10.056 0.61,8.823 21.46,13.371 25.27,8.601 17.94,9.361 1.95,-7.77 -0.18,-4.46 1.59,-5.22 -1.47,-4.47 0.43,-3.56 2.52,-3.89 3.32,-8.72 z" /></g><g
           style="fill:#0168ba;fill-opacity:1"
           transform="matrix(1.0788708,0,0,1.0788708,3.1157502,55.504621)"
           id="g64"><path
             id="path66"
             style="fill:#0168ba;fill-opacity:1;fill-rule:nonzero;stroke:none"
             d="M 0,0 -0.07,-1.09 -0.12,-1.12 -0.05,0 -0.52,0.85 -0.48,0.88 Z" /></g></g></g></g></svg>